<svg width="46" height="45" viewBox="0 0 46 45" fill="none" xmlns="http://www.w3.org/2000/svg">
<rect x="0.5" y="0.5" width="45" height="44" rx="22" fill="white"/>
<rect x="0.5" y="0.5" width="45" height="44" rx="22" stroke="#B2B2B2"/>
<path opacity="0.7" d="M9.66675 19.5C9.12008 19.5 8.66675 19.0467 8.66675 18.5V15.1667C8.66675 11.3 11.8134 8.16669 15.6667 8.16669H19.0001C19.5467 8.16669 20.0001 8.62002 20.0001 9.16669C20.0001 9.71335 19.5467 10.1667 19.0001 10.1667H15.6667C12.9067 10.1667 10.6667 12.4067 10.6667 15.1667V18.5C10.6667 19.0467 10.2134 19.5 9.66675 19.5Z" fill="#06283D"/>
<path d="M36.3333 19.5C35.7867 19.5 35.3333 19.0467 35.3333 18.5V15.1667C35.3333 12.4067 33.0933 10.1667 30.3333 10.1667H27C26.4533 10.1667 26 9.71335 26 9.16669C26 8.62002 26.4533 8.16669 27 8.16669H30.3333C34.1867 8.16669 37.3333 11.3 37.3333 15.1667V18.5C37.3333 19.0467 36.88 19.5 36.3333 19.5Z" fill="#06283D"/>
<path opacity="0.7" d="M30.3333 36.8333H28.3333C27.7866 36.8333 27.3333 36.38 27.3333 35.8333C27.3333 35.2866 27.7866 34.8333 28.3333 34.8333H30.3333C33.0933 34.8333 35.3333 32.5933 35.3333 29.8333V27.8333C35.3333 27.2866 35.7866 26.8333 36.3333 26.8333C36.8799 26.8333 37.3333 27.2866 37.3333 27.8333V29.8333C37.3333 33.7 34.1866 36.8333 30.3333 36.8333Z" fill="#06283D"/>
<path d="M19.0001 36.8333H15.6667C11.8134 36.8333 8.66675 33.7 8.66675 29.8333V26.5C8.66675 25.9533 9.12008 25.5 9.66675 25.5C10.2134 25.5 10.6667 25.9533 10.6667 26.5V29.8333C10.6667 32.5933 12.9067 34.8333 15.6667 34.8333H19.0001C19.5467 34.8333 20.0001 35.2867 20.0001 35.8333C20.0001 36.38 19.5467 36.8333 19.0001 36.8333Z" fill="#06283D"/>
<path d="M19 13.5H16.3333C14.8133 13.5 14 14.3 14 15.8333V18.5C14 20.0333 14.8133 20.8333 16.3333 20.8333H19C20.52 20.8333 21.3333 20.0333 21.3333 18.5V15.8333C21.3333 14.3 20.52 13.5 19 13.5Z" fill="#06283D"/>
<path opacity="0.7" d="M29.6667 13.5H27.0001C25.4801 13.5 24.6667 14.3 24.6667 15.8333V18.5C24.6667 20.0333 25.4801 20.8333 27.0001 20.8333H29.6667C31.1867 20.8333 32.0001 20.0333 32.0001 18.5V15.8333C32.0001 14.3 31.1867 13.5 29.6667 13.5Z" fill="#06283D"/>
<path opacity="0.7" d="M19 24.1667H16.3333C14.8133 24.1667 14 24.9667 14 26.5V29.1667C14 30.7 14.8133 31.5 16.3333 31.5H19C20.52 31.5 21.3333 30.7 21.3333 29.1667V26.5C21.3333 24.9667 20.52 24.1667 19 24.1667Z" fill="#06283D"/>
<path d="M29.6667 24.1667H27.0001C25.4801 24.1667 24.6667 24.9667 24.6667 26.5V29.1667C24.6667 30.7 25.4801 31.5 27.0001 31.5H29.6667C31.1867 31.5 32.0001 30.7 32.0001 29.1667V26.5C32.0001 24.9667 31.1867 24.1667 29.6667 24.1667Z" fill="#06283D"/>
</svg>
