<svg width="28" height="28" viewBox="0 0 28 28" fill="none" xmlns="http://www.w3.org/2000/svg">
<path d="M21.1631 25.2234C20.1364 25.5267 18.9231 25.6667 17.4998 25.6667H10.4998C9.07642 25.6667 7.86309 25.5267 6.83643 25.2234C7.09309 22.19 10.2081 19.7983 13.9998 19.7983C17.7914 19.7983 20.9064 22.19 21.1631 25.2234Z" stroke="#292D32" stroke-width="1.5" stroke-linecap="round" stroke-linejoin="round"/>
<path d="M17.5002 2.3335H10.5002C4.66683 2.3335 2.3335 4.66683 2.3335 10.5002V17.5002C2.3335 21.9102 3.6635 24.3252 6.83683 25.2235C7.0935 22.1902 10.2085 19.7985 14.0002 19.7985C17.7918 19.7985 20.9068 22.1902 21.1635 25.2235C24.3368 24.3252 25.6668 21.9102 25.6668 17.5002V10.5002C25.6668 4.66683 23.3335 2.3335 17.5002 2.3335ZM14.0002 16.5318C11.6902 16.5318 9.82349 14.6535 9.82349 12.3435C9.82349 10.0335 11.6902 8.16683 14.0002 8.16683C16.3102 8.16683 18.1768 10.0335 18.1768 12.3435C18.1768 14.6535 16.3102 16.5318 14.0002 16.5318Z" stroke="#292D32" stroke-width="1.5" stroke-linecap="round" stroke-linejoin="round"/>
<path d="M18.1766 12.3432C18.1766 14.6532 16.3099 16.5315 13.9999 16.5315C11.6899 16.5315 9.82324 14.6532 9.82324 12.3432C9.82324 10.0332 11.6899 8.1665 13.9999 8.1665C16.3099 8.1665 18.1766 10.0332 18.1766 12.3432Z" stroke="#292D32" stroke-width="1.5" stroke-linecap="round" stroke-linejoin="round"/>
</svg>
